<?xml version="1.0" encoding="UTF-8" standalone="no"?>
<svg
   xmlns:dc="http://purl.org/dc/elements/1.1/"
   xmlns:cc="http://creativecommons.org/ns#"
   xmlns:rdf="http://www.w3.org/1999/02/22-rdf-syntax-ns#"
   xmlns:svg="http://www.w3.org/2000/svg"
   xmlns="http://www.w3.org/2000/svg"
   viewBox="0 0 197.50667 41.16"
   height="41.16"
   width="197.50667"
   xml:space="preserve"
   id="svg2"
   version="1.1"><metadata
     id="metadata8"><rdf:RDF><cc:Work
         rdf:about=""><dc:format>image/svg+xml</dc:format><dc:type
           rdf:resource="http://purl.org/dc/dcmitype/StillImage" /></cc:Work></rdf:RDF></metadata><defs
     id="defs6" /><g
     transform="matrix(1.3333333,0,0,-1.3333333,0,41.16)"
     id="g10"><g
       transform="scale(0.1)"
       id="g12"><path
         id="path14"
         style="fill:#ffffff;fill-opacity:1;fill-rule:nonzero;stroke:none"
         d="M 231.156,23.8906 V 238.137 L 135.977,72.3945 H 120.906 L 25.7266,238.137 V 23.8906 H 0 V 284.809 H 26.457 L 128.254,106.203 230.789,284.809 h 26.09 V 23.8906 h -25.723" /><path
         id="path16"
         style="fill:#ffffff;fill-opacity:1;fill-rule:nonzero;stroke:none"
         d="m 646.098,142.949 h 83.418 c 7.593,0 14.515,1.66 20.765,4.961 6.25,3.313 11.582,7.727 15.989,13.235 4.414,5.515 7.839,11.882 10.293,19.113 2.441,7.226 3.671,14.754 3.671,22.597 0,8.086 -1.418,15.743 -4.23,22.969 -2.813,7.227 -6.609,13.535 -11.387,18.926 -4.773,5.391 -10.418,9.617 -16.91,12.684 -6.492,3.058 -13.289,4.589 -20.394,4.589 H 646.098 Z M 620.367,23.8906 V 284.809 h 108.051 c 11.262,0 21.613,-2.395 31.055,-7.168 9.422,-4.778 17.578,-11.028 24.433,-18.743 6.864,-7.714 12.254,-16.472 16.168,-26.277 3.918,-9.797 5.879,-19.719 5.879,-29.766 0,-10.785 -1.836,-21.132 -5.504,-31.054 -3.672,-9.922 -8.82,-18.684 -15.441,-26.274 -6.61,-7.593 -14.512,-13.726 -23.699,-18.379 -9.192,-4.656 -19.422,-6.98 -30.692,-6.98 H 646.098 V 23.8906 h -25.731" /><path
         id="path18"
         style="fill:#ffffff;fill-opacity:1;fill-rule:nonzero;stroke:none"
         d="M 951.629,125.688 899.078,254.672 845.801,125.688 Z m -63.203,159.121 h 21.679 L 1018.51,23.8906 H 991.324 L 957.52,105.473 H 840.281 L 806.844,23.8906 H 779.277 L 888.426,284.809" /><path
         id="path20"
         style="fill:#ffffff;fill-opacity:1;fill-rule:nonzero;stroke:none"
         d="m 1211.61,95.5508 c 0,6.3672 -1.09,12.5472 -3.3,18.5542 -2.21,6.004 -5.33,11.266 -9.38,15.797 -4.04,4.536 -8.8,8.215 -14.33,11.028 -5.51,2.812 -11.45,4.226 -17.81,4.226 h -99.97 V 46.3008 h 97.39 c 6.62,0 12.79,1.3476 18.55,4.043 5.76,2.6953 10.78,6.3085 15.08,10.8398 4.28,4.5312 7.66,9.7969 10.1,15.8008 2.44,6.0039 3.67,12.1875 3.67,18.5664 z M 1066.82,262.395 v -96.29 h 89.67 c 6.37,0 12.31,1.348 17.83,4.043 5.51,2.696 10.22,6.25 14.15,10.657 3.9,4.414 6.97,9.492 9.17,15.254 2.21,5.75 3.33,11.812 3.33,18.191 0,6.613 -1.06,12.863 -3.13,18.742 -2.09,5.879 -5.02,10.965 -8.83,15.254 -3.79,4.277 -8.26,7.715 -13.42,10.281 -5.13,2.578 -10.78,3.868 -16.89,3.868 z M 1237.33,91.1367 c 0,-9.7969 -1.95,-18.8008 -5.88,-27.0156 -3.9,-8.1992 -9.18,-15.3086 -15.8,-21.3047 -6.6,-6.0078 -14.31,-10.668 -23.14,-13.9648 -8.83,-3.3125 -18.26,-4.961 -28.3,-4.961 H 1041.1 V 284.809 h 125.69 c 9.06,0 17.26,-1.965 24.6,-5.879 7.37,-3.926 13.62,-9.004 18.75,-15.254 5.16,-6.242 9.13,-13.352 11.96,-21.309 2.81,-7.969 4.22,-15.988 4.22,-24.074 0,-13.23 -3.3,-25.305 -9.93,-36.199 -6.62,-10.91 -15.8,-19.055 -27.55,-24.438 14.94,-4.414 26.75,-12.625 35.45,-24.629 8.71,-12 13.04,-25.964 13.04,-41.8903" /><path
         id="path22"
         style="fill:#ffffff;fill-opacity:1;fill-rule:nonzero;stroke:none"
         d="m 1414.46,125.688 -52.56,128.984 -53.28,-128.984 z m -63.21,159.121 h 21.68 L 1481.35,23.8906 h -27.2 l -33.81,81.5824 H 1303.1 l -33.43,-81.5824 h -27.56 l 109.14,260.9184" /><path
         id="path24"
         style="fill:#ffffff;fill-opacity:1;fill-rule:nonzero;stroke:none"
         d="m 557.84,215.574 c 0,-2.66 -0.086,-5.355 -0.27,-8.031 -0.004,-0.133 -0.011,-0.266 -0.023,-0.398 -0.027,-0.411 -0.055,-0.817 -0.094,-1.219 -0.019,-0.289 -0.039,-0.578 -0.066,-0.848 -1.524,-17.461 -6.739,-33.992 -15.52,-49.144 -0.476,-0.829 -0.965,-1.645 -1.465,-2.461 -0.148,-0.254 -0.304,-0.508 -0.472,-0.754 -0.254,-0.422 -0.512,-0.832 -0.778,-1.242 -0.14,-0.223 -0.281,-0.446 -0.429,-0.664 -0.102,-0.165 -0.203,-0.329 -0.317,-0.489 -0.59,-0.914 -1.203,-1.816 -1.828,-2.707 -0.008,-0.012 -0.015,-0.031 -0.023,-0.047 -0.207,-0.289 -0.414,-0.586 -0.617,-0.871 -0.211,-0.301 -0.422,-0.594 -0.641,-0.894 -0.641,-0.887 -1.289,-1.758 -1.957,-2.629 -0.227,-0.293 -0.445,-0.574 -0.676,-0.867 -0.211,-0.278 -0.422,-0.539 -0.629,-0.813 -0.031,-0.027 -0.055,-0.058 -0.086,-0.09 -0.207,-0.269 -0.422,-0.547 -0.64,-0.808 -0.657,-0.813 -1.329,-1.621 -2.008,-2.422 -0.754,-0.879 -1.52,-1.738 -2.301,-2.598 -0.234,-0.262 -0.465,-0.515 -0.703,-0.769 -0.25,-0.278 -0.488,-0.539 -0.742,-0.801 -0.766,-0.82 -1.547,-1.621 -2.34,-2.414 -0.235,-0.242 -0.477,-0.489 -0.727,-0.735 -0.515,-0.504 -1.039,-1.023 -1.57,-1.519 -0.266,-0.254 -0.535,-0.512 -0.797,-0.766 v 0.012 c -0.16,1.16 -0.344,2.312 -0.539,3.477 -0.07,0.46 -0.144,0.898 -0.234,1.347 -0.008,0.078 -0.024,0.156 -0.032,0.235 -0.093,0.488 -0.187,0.976 -0.285,1.472 -0.086,0.473 -0.179,0.93 -0.273,1.399 -0.102,0.5 -0.211,0.996 -0.317,1.496 -0.043,0.215 -0.097,0.437 -0.148,0.664 -0.117,0.515 -0.227,1.035 -0.355,1.558 -0.098,0.414 -0.196,0.813 -0.301,1.223 -0.016,0.09 -0.035,0.164 -0.063,0.254 -0.086,0.359 -0.172,0.715 -0.269,1.074 -0.188,0.723 -0.379,1.426 -0.578,2.141 -0.079,0.304 -0.164,0.617 -0.258,0.929 -0.035,0.129 -0.074,0.258 -0.11,0.391 -0.066,0.227 -0.129,0.453 -0.203,0.684 -0.054,0.195 -0.113,0.386 -0.172,0.582 -0.078,0.269 -0.164,0.531 -0.242,0.801 -0.176,0.578 -0.363,1.164 -0.554,1.738 -0.102,0.332 -0.208,0.652 -0.321,0.98 -0.152,0.461 -0.308,0.922 -0.465,1.383 -0.105,0.309 -0.214,0.609 -0.328,0.914 -0.023,0.07 -0.047,0.141 -0.066,0.215 -0.043,0.117 -0.09,0.234 -0.129,0.348 -0.043,0.117 -0.082,0.23 -0.125,0.347 0.047,0.141 0.098,0.27 0.144,0.403 0.051,0.136 0.098,0.273 0.149,0.406 0.121,0.34 0.238,0.68 0.359,1.019 0.145,0.418 0.289,0.844 0.43,1.258 0.43,1.266 0.832,2.531 1.223,3.813 0.004,0.015 0.007,0.043 0.015,0.062 0.293,0.973 0.574,1.949 0.848,2.93 0.012,0.055 0.027,0.117 0.051,0.176 0.086,0.351 0.183,0.699 0.277,1.043 0.102,0.386 0.199,0.773 0.297,1.16 0.078,0.308 0.16,0.613 0.23,0.926 0.313,1.246 0.594,2.496 0.875,3.75 0.051,0.273 0.11,0.543 0.164,0.82 0.055,0.23 0.098,0.465 0.141,0.699 0.074,0.356 0.145,0.707 0.215,1.063 0.055,0.304 0.117,0.617 0.172,0.929 0.207,1.11 0.394,2.223 0.57,3.332 0.055,0.34 0.106,0.68 0.152,1.024 0.141,0.906 0.262,1.824 0.383,2.742 0.028,0.223 0.059,0.445 0.082,0.664 0.078,0.66 0.157,1.324 0.223,1.988 0.078,0.719 0.148,1.438 0.211,2.153 1.293,14.738 0.023,29.429 -3.777,43.679 -0.133,0.493 -0.266,0.977 -0.403,1.469 -0.094,0.356 -0.195,0.711 -0.297,1.063 -0.05,0.175 -0.101,0.347 -0.156,0.523 -0.078,0.258 -0.152,0.52 -0.227,0.777 -0.101,0.321 -0.195,0.645 -0.296,0.961 -0.036,0.129 -0.079,0.258 -0.121,0.391 -0.141,0.461 -0.29,0.918 -0.434,1.371 -0.016,0.051 -0.035,0.106 -0.051,0.148 -0.14,0.438 -0.289,0.883 -0.437,1.317 -0.039,0.133 -0.086,0.266 -0.133,0.398 -0.141,0.418 -0.289,0.844 -0.434,1.258 -0.558,1.574 -1.148,3.137 -1.765,4.68 -0.157,0.379 -0.305,0.765 -0.461,1.152 -0.055,0.129 -0.114,0.266 -0.172,0.403 -0.117,0.273 -0.227,0.546 -0.348,0.828 -0.101,0.242 -0.207,0.492 -0.312,0.734 -0.125,0.293 -0.254,0.586 -0.387,0.875 -0.047,0.117 -0.098,0.234 -0.145,0.344 -0.152,0.351 -0.308,0.691 -0.464,1.035 -0.192,0.418 -0.387,0.84 -0.582,1.254 -0.239,0.515 -0.485,1.031 -0.731,1.547 -0.234,0.468 -0.465,0.933 -0.699,1.406 -0.117,0.23 -0.231,0.453 -0.348,0.684 -0.156,0.316 -0.316,0.625 -0.476,0.937 -0.016,0.023 -0.032,0.051 -0.039,0.074 -0.219,0.43 -0.45,0.848 -0.676,1.274 -0.098,0.179 -0.196,0.363 -0.297,0.547 -0.164,0.312 -0.344,0.628 -0.512,0.937 -0.055,0.113 -0.113,0.211 -0.176,0.324 -0.254,0.453 -0.507,0.91 -0.773,1.367 -0.242,0.43 -0.496,0.848 -0.742,1.274 -0.871,1.484 -1.781,2.949 -2.719,4.394 -0.211,0.329 -0.414,0.649 -0.629,0.965 -0.062,0.106 -0.133,0.203 -0.195,0.305 -0.133,0.199 -0.274,0.398 -0.406,0.602 -0.25,0.375 -0.504,0.746 -0.762,1.117 -0.219,0.316 -0.438,0.64 -0.664,0.957 -0.211,0.297 -0.418,0.601 -0.633,0.894 -0.266,0.371 -0.535,0.746 -0.805,1.106 -0.258,0.359 -0.515,0.703 -0.773,1.054 -0.09,0.114 -0.176,0.235 -0.266,0.344 1.192,0.039 2.391,0.055 3.574,0.055 16.747,0 32.911,-3.391 48.079,-10.09 6.597,-15.082 9.945,-31.137 9.945,-47.758" /><path
         id="path26"
         style="fill:#ffffff;fill-opacity:1;fill-rule:nonzero;stroke:none"
         d="m 514.063,187.211 v -0.008 c -0.954,-10.875 -3.391,-21.543 -7.243,-31.73 -0.175,-0.465 -0.351,-0.93 -0.539,-1.395 -0.265,-0.683 -0.547,-1.371 -0.828,-2.051 -0.152,-0.359 -0.297,-0.722 -0.457,-1.086 -0.23,-0.546 -0.473,-1.101 -0.715,-1.648 -0.187,-0.41 -0.367,-0.82 -0.558,-1.234 l -0.004,-0.004 c -0.094,-0.211 -0.192,-0.422 -0.293,-0.629 -0.063,-0.145 -0.121,-0.278 -0.184,-0.41 v 0.007 c 0.145,2.465 0.211,4.942 0.211,7.407 0,8.406 -0.828,16.789 -2.465,24.937 -0.925,4.617 -2.113,9.192 -3.554,13.676 -1.442,4.492 -3.137,8.898 -5.079,13.191 -4.734,10.5 -10.902,20.313 -18.324,29.168 -0.308,0.368 -0.609,0.723 -0.922,1.086 -0.293,0.34 -0.586,0.676 -0.882,1.016 -0.61,0.695 -1.223,1.379 -1.844,2.059 -0.324,0.355 -0.653,0.703 -0.981,1.058 -0.66,0.703 -1.324,1.399 -1.992,2.086 -0.34,0.344 -0.672,0.684 -1.019,1.02 -0.446,0.457 -0.903,0.906 -1.364,1.355 -1.101,1.063 -2.226,2.109 -3.375,3.137 -0.019,0.019 -0.039,0.039 -0.066,0.066 -0.254,0.223 -0.512,0.457 -0.773,0.684 -0.508,0.457 -1.024,0.902 -1.547,1.347 -0.258,0.219 -0.524,0.438 -0.786,0.664 -0.351,0.293 -0.703,0.59 -1.054,0.879 -0.356,0.293 -0.707,0.579 -1.071,0.864 -0.722,0.586 -1.453,1.16 -2.191,1.726 -0.351,0.274 -0.703,0.539 -1.055,0.809 -0.332,0.246 -0.664,0.496 -0.996,0.742 -0.074,0.047 -0.14,0.102 -0.215,0.156 -0.332,0.239 -0.668,0.481 -1.007,0.727 -0.356,0.262 -0.715,0.515 -1.078,0.769 -0.411,0.282 -0.809,0.559 -1.211,0.832 -0.36,0.254 -0.735,0.504 -1.106,0.75 -0.375,0.262 -0.754,0.508 -1.141,0.758 -0.23,0.149 -0.457,0.297 -0.687,0.449 h -0.008 c 0.18,0.09 0.348,0.176 0.52,0.266 0.031,0.012 0.058,0.031 0.097,0.047 0.352,0.18 0.703,0.351 1.059,0.527 0.238,0.117 0.477,0.235 0.719,0.348 0.527,0.258 1.054,0.508 1.582,0.758 0.761,0.355 1.519,0.695 2.285,1.027 0.359,0.164 0.726,0.324 1.098,0.481 0.07,0.027 0.148,0.066 0.222,0.097 0.285,0.121 0.578,0.242 0.871,0.367 0.27,0.118 0.547,0.227 0.821,0.336 0.086,0.035 0.168,0.067 0.254,0.106 0.367,0.148 0.738,0.301 1.113,0.441 0.344,0.137 0.691,0.27 1.031,0.399 0.328,0.125 0.648,0.25 0.981,0.371 0.886,0.328 1.769,0.652 2.664,0.957 0.332,0.109 0.664,0.226 0.996,0.34 0.105,0.031 0.203,0.066 0.304,0.101 0.348,0.113 0.692,0.231 1.043,0.332 0.129,0.047 0.262,0.094 0.395,0.125 0.269,0.094 0.535,0.176 0.805,0.262 0.269,0.078 0.531,0.16 0.796,0.242 0.243,0.074 0.485,0.141 0.727,0.215 0.137,0.043 0.277,0.09 0.426,0.121 0.332,0.098 0.664,0.195 0.992,0.285 0.926,0.262 1.855,0.508 2.785,0.75 0.27,0.071 0.539,0.133 0.813,0.203 0.406,0.098 0.808,0.2 1.214,0.285 0.356,0.09 0.707,0.172 1.059,0.25 0.156,0.04 0.313,0.071 0.465,0.102 0.348,0.078 0.687,0.156 1.035,0.227 0.148,0.035 0.289,0.062 0.434,0.097 0.347,0.067 0.703,0.141 1.05,0.211 0.641,0.125 1.274,0.246 1.911,0.36 0.406,0.074 0.804,0.148 1.211,0.214 0.062,0.016 0.132,0.024 0.199,0.036 0.258,0.043 0.523,0.093 0.781,0.125 0.293,0.05 0.582,0.097 0.875,0.136 0.223,0.047 0.453,0.075 0.68,0.11 0.238,0.035 0.472,0.074 0.707,0.101 0.258,0.039 0.515,0.078 0.773,0.11 0.231,0.039 0.465,0.066 0.695,0.089 0.317,0.047 0.629,0.09 0.95,0.125 0.457,0.051 0.918,0.11 1.379,0.165 0.464,0.054 0.925,0.097 1.386,0.14 h 0.004 c 0.086,-0.101 0.164,-0.199 0.246,-0.301 0.227,-0.285 0.453,-0.566 0.68,-0.851 0.215,-0.262 0.426,-0.531 0.629,-0.793 2.414,-3.086 4.656,-6.27 6.73,-9.547 0.188,-0.297 0.375,-0.59 0.555,-0.883 0.395,-0.625 0.777,-1.262 1.148,-1.894 0.141,-0.231 0.282,-0.461 0.415,-0.692 0.152,-0.258 0.304,-0.515 0.445,-0.773 0.242,-0.422 0.488,-0.848 0.723,-1.27 0.175,-0.304 0.343,-0.621 0.511,-0.926 0.078,-0.144 0.16,-0.285 0.235,-0.429 0.152,-0.266 0.293,-0.539 0.433,-0.813 0.129,-0.234 0.254,-0.468 0.375,-0.699 0.145,-0.273 0.281,-0.543 0.422,-0.812 0.082,-0.165 0.164,-0.325 0.25,-0.493 0.137,-0.269 0.27,-0.531 0.399,-0.8 0.136,-0.258 0.261,-0.516 0.386,-0.782 0.117,-0.234 0.231,-0.465 0.34,-0.699 0.094,-0.195 0.184,-0.391 0.277,-0.586 0.129,-0.258 0.254,-0.515 0.372,-0.769 0.117,-0.258 0.238,-0.52 0.355,-0.782 0.125,-0.277 0.246,-0.55 0.375,-0.824 0.055,-0.133 0.113,-0.265 0.172,-0.398 0.137,-0.313 0.273,-0.617 0.402,-0.93 0.121,-0.266 0.238,-0.527 0.348,-0.797 0.086,-0.207 0.172,-0.41 0.25,-0.617 0.133,-0.297 0.254,-0.605 0.375,-0.91 0.183,-0.422 0.348,-0.852 0.515,-1.27 0.118,-0.289 0.223,-0.578 0.333,-0.867 0.082,-0.199 0.156,-0.398 0.234,-0.605 0.105,-0.293 0.219,-0.586 0.332,-0.883 0.062,-0.156 0.113,-0.32 0.168,-0.485 0.144,-0.371 0.273,-0.746 0.402,-1.117 0.688,-1.937 1.328,-3.906 1.914,-5.886 0.301,-1.047 0.602,-2.098 0.883,-3.153 3.594,-13.469 4.789,-27.351 3.567,-41.281" /><path
         id="path28"
         style="fill:#ffffff;fill-opacity:1;fill-rule:nonzero;stroke:none"
         d="m 381.277,273.531 c -0.035,-0.031 -0.058,-0.078 -0.082,-0.109 -0.351,-0.469 -0.699,-0.93 -1.035,-1.395 -0.324,-0.433 -0.644,-0.879 -0.961,-1.32 -0.043,-0.055 -0.074,-0.105 -0.109,-0.156 -0.277,-0.387 -0.551,-0.774 -0.82,-1.16 -0.082,-0.118 -0.161,-0.227 -0.239,-0.352 -0.277,-0.394 -0.551,-0.793 -0.82,-1.199 -0.012,-0.012 -0.02,-0.024 -0.031,-0.039 -0.274,-0.403 -0.539,-0.805 -0.809,-1.223 -0.207,-0.305 -0.41,-0.625 -0.605,-0.937 -0.176,-0.262 -0.344,-0.52 -0.508,-0.786 -0.375,-0.589 -0.742,-1.191 -1.11,-1.785 -0.191,-0.312 -0.386,-0.625 -0.574,-0.945 -0.359,-0.609 -0.719,-1.215 -1.07,-1.836 -0.211,-0.363 -0.422,-0.742 -0.637,-1.117 -0.031,-0.063 -0.066,-0.121 -0.097,-0.184 -0.266,-0.468 -0.528,-0.945 -0.786,-1.422 -0.269,-0.5 -0.535,-1.007 -0.8,-1.507 -0.262,-0.504 -0.524,-1.012 -0.782,-1.52 -0.023,-0.043 -0.043,-0.082 -0.062,-0.121 -0.238,-0.465 -0.469,-0.934 -0.699,-1.406 -0.254,-0.52 -0.496,-1.028 -0.743,-1.539 -0.195,-0.414 -0.394,-0.84 -0.585,-1.262 -0.098,-0.215 -0.196,-0.422 -0.282,-0.633 -0.187,-0.406 -0.367,-0.812 -0.547,-1.226 -0.191,-0.426 -0.371,-0.86 -0.558,-1.286 -0.086,-0.195 -0.164,-0.382 -0.242,-0.578 -0.196,-0.457 -0.383,-0.91 -0.567,-1.363 -0.148,-0.375 -0.301,-0.742 -0.441,-1.113 -0.078,-0.192 -0.156,-0.383 -0.227,-0.571 -0.187,-0.48 -0.363,-0.957 -0.551,-1.441 -0.343,-0.93 -0.687,-1.859 -1.003,-2.805 -0.157,-0.429 -0.305,-0.859 -0.446,-1.293 -0.035,-0.086 -0.062,-0.175 -0.094,-0.261 -0.105,-0.325 -0.207,-0.645 -0.312,-0.973 -0.121,-0.363 -0.238,-0.734 -0.355,-1.105 -0.016,-0.032 -0.024,-0.071 -0.036,-0.106 -0.121,-0.383 -0.238,-0.766 -0.355,-1.156 -0.082,-0.274 -0.164,-0.555 -0.254,-0.836 -0.289,-0.981 -0.566,-1.973 -0.828,-2.969 -3.84,-14.242 -5.152,-28.93 -3.899,-43.656 0.122,-1.442 0.27,-2.879 0.442,-4.309 0.043,-0.355 0.082,-0.718 0.129,-1.074 0.047,-0.355 0.093,-0.715 0.144,-1.07 0.047,-0.36 0.102,-0.711 0.149,-1.071 0.054,-0.359 0.101,-0.711 0.164,-1.066 0.051,-0.355 0.109,-0.715 0.164,-1.066 0.058,-0.356 0.117,-0.711 0.18,-1.071 0.054,-0.308 0.113,-0.625 0.167,-0.941 0.262,-1.453 0.547,-2.902 0.864,-4.356 0.058,-0.273 0.121,-0.554 0.179,-0.828 0.094,-0.425 0.192,-0.855 0.293,-1.273 0.075,-0.328 0.153,-0.66 0.235,-0.992 0.262,-1.071 0.535,-2.133 0.82,-3.196 0.094,-0.343 0.188,-0.691 0.289,-1.039 0.012,-0.047 0.02,-0.09 0.035,-0.136 0.184,-0.649 0.371,-1.293 0.563,-1.934 0.305,-1.035 0.629,-2.07 0.961,-3.098 0.109,-0.336 0.23,-0.675 0.347,-1.019 0.106,-0.34 0.223,-0.684 0.344,-1.02 0.117,-0.34 0.242,-0.679 0.36,-1.015 0.097,-0.274 0.187,-0.536 0.293,-0.813 -0.094,-0.238 -0.184,-0.48 -0.27,-0.726 -0.012,-0.043 -0.035,-0.098 -0.055,-0.145 -0.113,-0.316 -0.218,-0.637 -0.332,-0.949 -0.121,-0.348 -0.238,-0.684 -0.355,-1.024 -0.113,-0.336 -0.231,-0.679 -0.344,-1.027 -0.105,-0.34 -0.219,-0.684 -0.332,-1.023 -0.109,-0.336 -0.219,-0.684 -0.32,-1.032 -0.063,-0.195 -0.129,-0.394 -0.188,-0.593 -0.125,-0.407 -0.242,-0.813 -0.363,-1.223 -0.129,-0.434 -0.258,-0.879 -0.383,-1.324 -0.066,-0.235 -0.137,-0.473 -0.199,-0.711 -0.117,-0.426 -0.234,-0.848 -0.344,-1.266 -0.109,-0.422 -0.219,-0.84 -0.324,-1.262 -0.059,-0.222 -0.113,-0.449 -0.172,-0.671 -0.129,-0.508 -0.25,-1.004 -0.367,-1.524 -0.102,-0.437 -0.203,-0.879 -0.305,-1.316 -0.008,-0.032 -0.012,-0.063 -0.015,-0.09 -0.227,-0.977 -0.426,-1.953 -0.618,-2.93 -0.14,-0.683 -0.269,-1.355 -0.39,-2.031 -0.067,-0.371 -0.133,-0.742 -0.196,-1.113 -0.039,-0.235 -0.082,-0.469 -0.121,-0.703 -0.132,-0.801 -0.25,-1.59 -0.371,-2.391 -0.031,-0.188 -0.054,-0.383 -0.078,-0.566 -0.308,0.292 -0.609,0.574 -0.91,0.867 -0.316,0.304 -0.629,0.605 -0.938,0.91 -0.304,0.301 -0.617,0.601 -0.921,0.918 -0.309,0.301 -0.61,0.613 -0.918,0.926 -0.606,0.617 -1.2,1.242 -1.793,1.875 -0.325,0.351 -0.653,0.703 -0.977,1.062 -0.215,0.246 -0.43,0.473 -0.648,0.715 -0.203,0.234 -0.414,0.469 -0.614,0.691 -0.211,0.246 -0.425,0.493 -0.632,0.727 -2.387,2.754 -4.653,5.613 -6.778,8.578 -0.179,0.238 -0.351,0.484 -0.519,0.727 -0.899,1.265 -1.77,2.554 -2.614,3.859 -0.226,0.34 -0.453,0.687 -0.675,1.031 -0.473,0.754 -0.946,1.512 -1.407,2.274 -0.195,0.32 -0.379,0.636 -0.57,0.957 -0.254,0.425 -0.508,0.859 -0.762,1.293 -8.73,15.172 -13.902,31.722 -15.375,49.199 -0.062,0.738 -0.113,1.48 -0.168,2.226 0,0.008 0,0.016 0,0.024 -0.175,2.629 -0.261,5.273 -0.261,7.902 0,16.742 3.398,32.906 10.093,48.067 15.082,6.609 31.141,9.957 47.758,9.957 1.297,0 2.602,-0.02 3.91,-0.067" /><path
         id="path30"
         style="fill:#ffffff;fill-opacity:1;fill-rule:nonzero;stroke:none"
         d="m 431.516,48.2539 c -0.164,-0.0859 -0.336,-0.1758 -0.508,-0.2656 -0.039,-0.0156 -0.067,-0.0274 -0.102,-0.0469 -0.351,-0.1758 -0.703,-0.3516 -1.058,-0.5273 -0.239,-0.1172 -0.481,-0.2344 -0.719,-0.3516 -0.527,-0.2539 -1.055,-0.5078 -1.582,-0.75 -0.762,-0.3516 -1.52,-0.6953 -2.285,-1.0391 -0.36,-0.164 -0.727,-0.3086 -1.094,-0.4765 -0.074,-0.0274 -0.152,-0.0586 -0.219,-0.086 -0.293,-0.1289 -0.586,-0.2578 -0.875,-0.3711 -0.277,-0.1171 -0.551,-0.2265 -0.82,-0.3437 -0.082,-0.0273 -0.172,-0.0664 -0.254,-0.0977 -0.371,-0.1562 -0.742,-0.3007 -1.117,-0.4375 -0.344,-0.1484 -0.684,-0.2734 -1.028,-0.4101 -0.324,-0.1172 -0.652,-0.2461 -0.98,-0.3711 -0.887,-0.3242 -1.773,-0.6484 -2.664,-0.957 -0.332,-0.1094 -0.664,-0.2266 -0.996,-0.3321 -0.106,-0.0312 -0.203,-0.0703 -0.309,-0.0976 -0.347,-0.1172 -0.687,-0.2344 -1.035,-0.3438 -0.133,-0.0508 -0.266,-0.0898 -0.394,-0.1289 -0.27,-0.0859 -0.543,-0.1719 -0.813,-0.2539 -0.262,-0.0781 -0.527,-0.1641 -0.797,-0.2422 -0.238,-0.0781 -0.48,-0.1445 -0.722,-0.2148 -0.141,-0.0469 -0.286,-0.0781 -0.43,-0.125 -0.324,-0.0977 -0.656,-0.1875 -0.988,-0.2852 -0.93,-0.2539 -1.86,-0.5078 -2.786,-0.7422 -0.269,-0.0664 -0.546,-0.1367 -0.816,-0.2031 -0.402,-0.1016 -0.809,-0.1953 -1.215,-0.293 -0.355,-0.0898 -0.707,-0.1679 -1.062,-0.2461 -0.153,-0.039 -0.305,-0.0664 -0.457,-0.1054 -0.344,-0.0821 -0.692,-0.1485 -1.039,-0.2266 -0.149,-0.0273 -0.289,-0.0586 -0.434,-0.0859 -0.348,-0.0781 -0.699,-0.1485 -1.051,-0.2188 -0.633,-0.125 -1.269,-0.2539 -1.91,-0.3593 -0.398,-0.0782 -0.801,-0.1563 -1.211,-0.2149 -0.066,-0.0195 -0.129,-0.0273 -0.199,-0.0391 -0.266,-0.039 -0.524,-0.0859 -0.785,-0.125 -0.289,-0.0507 -0.571,-0.0898 -0.871,-0.1406 -0.219,-0.039 -0.453,-0.0664 -0.676,-0.1054 -0.242,-0.0274 -0.473,-0.0704 -0.711,-0.0977 -0.254,-0.0391 -0.516,-0.0664 -0.77,-0.1055 -0.23,-0.0312 -0.468,-0.0703 -0.699,-0.0976 -0.316,-0.0391 -0.629,-0.0782 -0.941,-0.1172 -0.465,-0.0625 -0.93,-0.1172 -1.387,-0.168 -0.461,-0.0469 -0.926,-0.0976 -1.387,-0.1484 -0.082,0.1094 -0.168,0.207 -0.246,0.3047 -0.226,0.2812 -0.457,0.5664 -0.683,0.8593 -0.207,0.2618 -0.422,0.5274 -0.629,0.793 -2.41,3.082 -4.653,6.2695 -6.731,9.5391 -0.183,0.2929 -0.371,0.5859 -0.551,0.8867 -0.394,0.6367 -0.777,1.2617 -1.152,1.8984 -0.14,0.2227 -0.281,0.4571 -0.414,0.6914 -0.144,0.2539 -0.297,0.5078 -0.449,0.7735 -0.238,0.4179 -0.485,0.8359 -0.711,1.2656 -0.184,0.3047 -0.352,0.6172 -0.52,0.9297 -0.082,0.1367 -0.156,0.2851 -0.234,0.4219 -0.145,0.2695 -0.293,0.5468 -0.437,0.8203 -0.129,0.2304 -0.247,0.4687 -0.368,0.6992 -0.14,0.2656 -0.281,0.5391 -0.425,0.8125 -0.082,0.1562 -0.165,0.332 -0.254,0.4883 -0.133,0.2656 -0.27,0.5351 -0.399,0.8008 -0.133,0.2539 -0.262,0.5156 -0.387,0.7812 -0.109,0.2344 -0.226,0.4688 -0.335,0.7031 -0.094,0.1875 -0.184,0.3828 -0.278,0.5742 -0.125,0.254 -0.246,0.5196 -0.363,0.7852 -0.121,0.2617 -0.238,0.5156 -0.363,0.7695 -0.125,0.2813 -0.246,0.5586 -0.375,0.8282 -0.059,0.1406 -0.114,0.2656 -0.172,0.3945 -0.137,0.3203 -0.27,0.6328 -0.41,0.9336 -0.11,0.2656 -0.223,0.5312 -0.336,0.793 -0.086,0.2148 -0.172,0.4179 -0.258,0.6171 -0.129,0.3008 -0.25,0.6055 -0.371,0.918 -0.176,0.418 -0.352,0.8477 -0.508,1.2695 -0.117,0.293 -0.234,0.5743 -0.34,0.8555 -0.074,0.207 -0.16,0.4141 -0.23,0.6172 -0.11,0.2852 -0.223,0.5781 -0.328,0.8789 -0.067,0.1563 -0.122,0.3242 -0.176,0.4805 -0.145,0.3789 -0.278,0.75 -0.407,1.1211 -0.683,1.9453 -1.324,3.9062 -1.906,5.8906 -0.304,1.043 -0.601,2.0898 -0.883,3.1523 -3.593,13.4688 -4.789,27.356 -3.574,41.277 v 0.012 c 0.043,0.442 0.082,0.867 0.129,1.309 0.055,0.586 0.117,1.172 0.184,1.758 0.109,0.917 0.226,1.835 0.343,2.746 0.02,0.086 0.028,0.175 0.043,0.269 0.059,0.41 0.118,0.82 0.18,1.242 0.145,0.965 0.305,1.934 0.477,2.903 0.082,0.476 0.175,0.965 0.261,1.453 0.09,0.476 0.18,0.957 0.278,1.433 0.156,0.774 0.316,1.536 0.488,2.297 0.051,0.227 0.098,0.469 0.156,0.703 0.074,0.332 0.153,0.664 0.235,0.996 0.05,0.235 0.109,0.469 0.168,0.704 0.086,0.351 0.171,0.703 0.257,1.054 0.122,0.481 0.247,0.95 0.375,1.426 0.098,0.383 0.204,0.762 0.313,1.145 0.152,0.554 0.312,1.121 0.48,1.687 0.051,-0.113 0.106,-0.223 0.157,-0.344 0.25,-0.535 0.507,-1.074 0.765,-1.609 0.039,-0.066 0.071,-0.137 0.102,-0.203 0.144,-0.293 0.285,-0.578 0.422,-0.86 0.183,-0.371 0.367,-0.734 0.547,-1.085 0.125,-0.254 0.253,-0.508 0.386,-0.75 0.078,-0.161 0.16,-0.317 0.239,-0.461 0.14,-0.286 0.281,-0.547 0.425,-0.821 0.235,-0.437 0.473,-0.879 0.711,-1.316 0.211,-0.395 0.43,-0.781 0.649,-1.176 0.097,-0.164 0.191,-0.34 0.285,-0.516 0.293,-0.507 0.582,-1.015 0.883,-1.523 0.265,-0.449 0.527,-0.898 0.8,-1.348 0.012,-0.031 0.032,-0.046 0.051,-0.078 0.293,-0.488 0.59,-0.976 0.887,-1.457 0.281,-0.457 0.57,-0.918 0.855,-1.363 0.086,-0.129 0.165,-0.258 0.25,-0.383 0.141,-0.223 0.293,-0.437 0.438,-0.664 0.019,-0.117 0.043,-0.234 0.07,-0.344 0.02,-0.117 0.047,-0.23 0.071,-0.34 0.039,-0.195 0.078,-0.39 0.125,-0.585 0.097,-0.477 0.207,-0.938 0.316,-1.415 0.008,-0.05 0.02,-0.097 0.027,-0.148 0.118,-0.477 0.231,-0.957 0.344,-1.434 0.035,-0.136 0.063,-0.277 0.102,-0.414 0.093,-0.386 0.195,-0.781 0.297,-1.16 0.039,-0.183 0.089,-0.359 0.136,-0.539 0.137,-0.523 0.274,-1.031 0.418,-1.551 0.149,-0.566 0.317,-1.132 0.477,-1.699 v -0.012 c 0.101,-0.339 0.207,-0.691 0.312,-1.043 0.086,-0.3 0.18,-0.617 0.278,-0.925 0.14,-0.469 0.293,-0.942 0.445,-1.399 0.012,-0.039 0.019,-0.066 0.035,-0.097 0.094,-0.313 0.195,-0.618 0.297,-0.926 0.094,-0.285 0.187,-0.567 0.281,-0.852 l 0.516,-1.472 c 0.195,-0.571 0.394,-1.118 0.594,-1.672 0.136,-0.364 0.281,-0.735 0.418,-1.094 l 2.933,-7.078 c 4.735,-10.5002 10.902,-20.3166 18.328,-29.172 0.309,-0.3594 0.606,-0.7227 0.918,-1.0821 0.293,-0.3437 0.586,-0.6875 0.879,-1.0195 0.617,-0.6914 1.227,-1.375 1.844,-2.0586 0.324,-0.3594 0.664,-0.7031 0.98,-1.0664 0.661,-0.6914 1.328,-1.3828 1.996,-2.0703 0.344,-0.3477 0.68,-0.6914 1.016,-1.0313 0.453,-0.4492 0.914,-0.8984 1.367,-1.3515 1.11,-1.0625 2.227,-2.1055 3.375,-3.1406 0.024,-0.0235 0.043,-0.0391 0.067,-0.0625 0.261,-0.2227 0.507,-0.4454 0.769,-0.6797 0.512,-0.4532 1.028,-0.9024 1.551,-1.3477 0.258,-0.2265 0.523,-0.4414 0.785,-0.664 0.352,-0.293 0.707,-0.5977 1.055,-0.879 0.359,-0.2851 0.711,-0.5859 1.066,-0.871 0.723,-0.5743 1.457,-1.1602 2.196,-1.7305 0.351,-0.2617 0.71,-0.5352 1.058,-0.7969 0.332,-0.2539 0.664,-0.5 0.996,-0.7461 0.071,-0.0469 0.141,-0.1055 0.207,-0.1523 0.34,-0.2461 0.672,-0.4883 1.012,-0.7344 0.355,-0.2539 0.723,-0.5156 1.082,-0.7617 0.402,-0.2813 0.809,-0.5664 1.207,-0.8399 0.367,-0.2539 0.734,-0.4961 1.098,-0.7539 0.383,-0.2422 0.761,-0.4961 1.148,-0.75 0.231,-0.1445 0.457,-0.3047 0.684,-0.4492 h 0.004" /><path
         id="path32"
         style="fill:#ffffff;fill-opacity:1;fill-rule:nonzero;stroke:none"
         d="M 510.281,80.0039 C 505.73,63.0977 497.688,47.7344 486.375,34.3398 484.203,31.7617 481.887,29.2383 479.5,26.8477 467.66,15.0234 453.836,5.98828 438.379,0.00390625 423.039,5.98828 409.32,14.9844 397.563,26.7305 c -0.918,0.9179 -1.821,1.8554 -2.715,2.8125 1.172,0.1679 2.343,0.3437 3.5,0.5351 0.039,0 0.082,0.0117 0.117,0.0235 0.519,0.0859 1.035,0.1718 1.547,0.2617 0.058,0.0078 0.117,0.0195 0.172,0.039 0.539,0.086 1.07,0.1954 1.601,0.293 0.559,0.1172 1.121,0.2266 1.676,0.3399 0.566,0.1171 1.117,0.2461 1.68,0.3711 0.039,0 0.066,0 0.101,0.0117 0.52,0.1289 1.039,0.2422 1.567,0.3711 0.543,0.1289 1.082,0.2656 1.617,0.4023 0.051,0.0078 0.101,0.0195 0.148,0.0274 0.516,0.1367 1.035,0.2734 1.551,0.4101 0.547,0.1445 1.105,0.293 1.652,0.4492 0.551,0.1563 1.098,0.3125 1.637,0.4805 0.551,0.1641 1.098,0.332 1.637,0.4961 0.523,0.168 1.051,0.332 1.574,0.5078 0.691,0.2148 1.375,0.4492 2.066,0.6953 0.411,0.1445 0.813,0.2813 1.219,0.4297 0.539,0.1953 1.074,0.3867 1.613,0.5859 0.516,0.1954 1.04,0.3985 1.563,0.5938 0.027,0.0117 0.051,0.0312 0.082,0.0391 0.492,0.1953 0.988,0.3906 1.484,0.5859 0.028,0.0117 0.059,0.0312 0.086,0.0391 0.52,0.2148 1.035,0.4296 1.555,0.6445 0.516,0.2226 1.051,0.4492 1.57,0.6836 1.051,0.457 2.086,0.9258 3.125,1.414 0.516,0.2383 1.024,0.4922 1.524,0.7344 0.047,0.0195 0.086,0.0391 0.117,0.0586 0.379,0.1875 0.758,0.3711 1.141,0.5547 0.207,0.1094 0.421,0.2187 0.636,0.332 0.371,0.1875 0.742,0.3711 1.11,0.5703 0.054,0.0274 0.105,0.0547 0.16,0.086 0.429,0.2265 0.863,0.4492 1.297,0.6836 1.078,0.5742 2.136,1.1718 3.195,1.7773 12.793,7.3633 24.109,16.8281 33.629,28.125 7.457,8.836 13.648,18.6328 18.414,29.1137 0.945,2.089 1.844,4.207 2.68,6.355 0.101,0.266 0.207,0.535 0.308,0.801 0.125,0.332 0.254,0.676 0.379,1.015 0.203,0.547 0.406,1.106 0.602,1.653 0.195,0.562 0.39,1.109 0.582,1.668 0.183,0.547 0.367,1.074 0.535,1.621 0.035,0.098 0.066,0.187 0.094,0.281 0.156,0.488 0.312,0.981 0.464,1.469 0.004,0.008 0.004,0.019 0.004,0.027 0.153,0.489 0.301,0.969 0.446,1.453 0.082,0.278 0.156,0.539 0.226,0.801 0.102,0.305 0.184,0.617 0.266,0.93 0.141,0.5 0.289,0.996 0.422,1.504 0.082,0.324 0.164,0.636 0.242,0.957 0.098,0.359 0.187,0.722 0.277,1.086 0.02,0.054 0.032,0.117 0.039,0.183 0.125,0.457 0.235,0.918 0.34,1.375 0.047,0.207 0.098,0.403 0.137,0.598 0.098,0.391 0.184,0.793 0.273,1.191 0.086,0.403 0.172,0.813 0.262,1.211 0,0 0,0 0,0.008 v 0.012 c 0.199,0.293 0.395,0.597 0.59,0.898 0.012,0.02 0.019,0.032 0.031,0.047 0.297,0.449 0.586,0.918 0.871,1.379 0.028,0.039 0.051,0.078 0.082,0.117 0.285,0.469 0.571,0.938 0.864,1.399 0.003,0.015 0.015,0.039 0.023,0.047 0.309,0.507 0.602,1.003 0.898,1.503 0.004,0.008 0.008,0.02 0.016,0.032 0.254,0.429 0.496,0.847 0.738,1.289 0.118,0.191 0.235,0.39 0.336,0.586 0.223,0.386 0.438,0.781 0.649,1.172 0.015,0 0.019,0.007 0.023,0.015 0.281,0.52 0.559,1.035 0.832,1.555 0.278,0.519 0.551,1.047 0.821,1.562 0.035,0.071 0.074,0.137 0.105,0.207 0.23,0.457 0.465,0.907 0.684,1.368 0.007,0.007 0.011,0.007 0.011,0.007 0.223,0.457 0.446,0.918 0.664,1.368 0.051,0.109 0.106,0.222 0.161,0.332 0.16,0.343 0.328,0.683 0.484,1.039 v -0.008 c 0.105,-0.356 0.211,-0.731 0.312,-1.09 0.036,-0.137 0.079,-0.273 0.118,-0.41 0.105,-0.399 0.214,-0.801 0.316,-1.192 0.121,-0.449 0.234,-0.898 0.352,-1.347 0.062,-0.242 0.121,-0.481 0.171,-0.711 0.192,-0.754 0.368,-1.516 0.543,-2.27 0.071,-0.332 0.145,-0.664 0.215,-0.996 0.071,-0.332 0.141,-0.664 0.207,-0.996 0.145,-0.664 0.274,-1.324 0.399,-2 0.05,-0.273 0.105,-0.555 0.16,-0.832 0.07,-0.43 0.152,-0.848 0.223,-1.277 0.07,-0.41 0.136,-0.828 0.203,-1.238 0.082,-0.493 0.16,-0.969 0.226,-1.465 0.149,-0.969 0.281,-1.946 0.399,-2.922 0.058,-0.488 0.109,-0.977 0.164,-1.465 0.058,-0.488 0.105,-0.984 0.156,-1.465 0.043,-0.5 0.094,-0.984 0.137,-1.473 1.183,-13.925 -0.059,-27.8121 -3.692,-41.2691" /><path
         id="path34"
         style="fill:#ffffff;fill-opacity:1;fill-rule:nonzero;stroke:none"
         d="m 380.941,35.3242 c -1.191,-0.039 -2.382,-0.0508 -3.574,-0.0508 -16.746,0 -32.906,3.3907 -48.066,10.0899 -6.606,15.0859 -9.957,31.1445 -9.957,47.7539 0,2.6484 0.09,5.3125 0.265,7.9568 0,0.024 0.004,0.039 0.004,0.051 l 0.082,1.27 c 0.035,0.41 0.071,0.82 0.102,1.218 v 0.012 c 0.039,0.48 0.09,0.957 0.137,1.438 0.031,0.339 0.07,0.691 0.101,1.035 0.028,0.195 0.047,0.371 0.067,0.554 0.027,0.254 0.058,0.508 0.086,0.75 0.031,0.278 0.066,0.539 0.101,0.801 0.031,0.293 0.07,0.59 0.113,0.871 0.02,0.196 0.051,0.391 0.078,0.574 0.036,0.254 0.067,0.508 0.11,0.762 0.031,0.305 0.082,0.61 0.133,0.903 0.031,0.253 0.07,0.515 0.121,0.769 0.066,0.449 0.14,0.891 0.215,1.328 0.14,0.852 0.296,1.699 0.464,2.551 0.086,0.469 0.18,0.937 0.278,1.402 0.179,0.879 0.375,1.758 0.574,2.649 0.086,0.371 0.172,0.73 0.262,1.101 0.031,0.16 0.07,0.317 0.117,0.461 0.07,0.324 0.148,0.625 0.226,0.938 0.055,0.234 0.114,0.461 0.176,0.691 0.125,0.461 0.246,0.93 0.371,1.391 0.114,0.418 0.231,0.847 0.36,1.277 0.004,0.039 0.019,0.078 0.027,0.117 0.152,0.508 0.297,1.016 0.449,1.524 0.289,0.957 0.586,1.906 0.899,2.851 0.144,0.457 0.304,0.91 0.453,1.36 0.152,0.449 0.312,0.894 0.476,1.343 0.161,0.454 0.321,0.911 0.489,1.352 0.164,0.457 0.336,0.898 0.5,1.348 0.175,0.437 0.351,0.886 0.523,1.328 0.18,0.449 0.363,0.886 0.547,1.336 0.902,2.218 1.887,4.394 2.934,6.558 0.214,0.43 0.425,0.86 0.64,1.293 0.215,0.43 0.434,0.86 0.656,1.289 0.61,-0.957 1.239,-1.898 1.875,-2.836 0.157,-0.23 0.309,-0.464 0.477,-0.699 1.332,-1.941 2.731,-3.84 4.164,-5.691 0.176,-0.235 0.359,-0.473 0.543,-0.696 0.336,-0.429 0.68,-0.859 1.02,-1.289 0.371,-0.449 0.742,-0.91 1.113,-1.347 0.555,-0.664 1.105,-1.321 1.672,-1.961 0.211,-0.254 0.426,-0.5 0.64,-0.742 0.758,-0.871 1.536,-1.719 2.325,-2.571 0.203,-0.222 0.41,-0.449 0.617,-0.664 0.211,-0.215 0.41,-0.429 0.621,-0.644 0.23,-0.242 0.469,-0.496 0.707,-0.742 0.187,-0.184 0.371,-0.379 0.562,-0.567 0.2,-0.215 0.411,-0.422 0.629,-0.637 0.535,-0.523 1.067,-1.05 1.61,-1.589 0.578,-0.555 1.172,-1.114 1.761,-1.661 0.239,-0.222 0.477,-0.437 0.715,-0.664 0.836,-0.761 1.688,-1.511 2.547,-2.265 h 0.004 c -0.016,-0.176 -0.035,-0.352 -0.043,-0.528 -0.039,-0.605 -0.078,-1.211 -0.113,-1.816 -0.024,-0.41 -0.043,-0.813 -0.063,-1.211 -0.015,-0.242 -0.023,-0.488 -0.031,-0.73 -0.012,-0.352 -0.023,-0.704 -0.031,-1.055 -0.02,-0.41 -0.035,-0.832 -0.039,-1.25 -0.008,-0.317 -0.012,-0.637 -0.016,-0.942 -0.004,-0.222 -0.004,-0.449 -0.004,-0.671 -0.113,-11.368 1.317,-22.6567 4.254,-33.6801 0.133,-0.4883 0.266,-0.9805 0.402,-1.4766 0.098,-0.3515 0.2,-0.7031 0.297,-1.0547 0.055,-0.1875 0.11,-0.3515 0.157,-0.5273 0.078,-0.2617 0.152,-0.5156 0.23,-0.7695 0.098,-0.3243 0.191,-0.6563 0.297,-0.9805 0.035,-0.1172 0.078,-0.2539 0.117,-0.3789 0.145,-0.461 0.289,-0.918 0.438,-1.375 0.011,-0.0508 0.031,-0.0977 0.046,-0.1485 0.141,-0.4375 0.29,-0.8789 0.442,-1.3164 0.039,-0.1289 0.086,-0.2539 0.129,-0.3906 0.148,-0.4219 0.289,-0.8437 0.441,-1.2617 0.555,-1.5703 1.141,-3.1328 1.758,-4.6758 0.152,-0.3828 0.309,-0.7617 0.469,-1.1562 0.054,-0.1368 0.105,-0.2696 0.164,-0.4063 0.117,-0.2656 0.23,-0.5508 0.347,-0.8203 0.11,-0.2461 0.208,-0.4922 0.317,-0.7422 0.125,-0.293 0.254,-0.5859 0.383,-0.8711 0.043,-0.1172 0.097,-0.2344 0.148,-0.3398 0.152,-0.3516 0.309,-0.6953 0.465,-1.0391 0.187,-0.418 0.383,-0.8359 0.578,-1.25 0.242,-0.5156 0.484,-1.0351 0.738,-1.5508 0.227,-0.4687 0.457,-0.9375 0.696,-1.4062 0.109,-0.2344 0.226,-0.461 0.343,-0.6836 0.157,-0.3125 0.321,-0.625 0.477,-0.9375 0.016,-0.0195 0.031,-0.0469 0.047,-0.0664 0.219,-0.4336 0.441,-0.8594 0.668,-1.2813 0.098,-0.1875 0.195,-0.3633 0.297,-0.5468 0.168,-0.3125 0.343,-0.6329 0.519,-0.9375 0.047,-0.1055 0.106,-0.2149 0.168,-0.3204 0.254,-0.4609 0.516,-0.9101 0.778,-1.3671 0.246,-0.4219 0.492,-0.8516 0.738,-1.2735 0.879,-1.4805 1.777,-2.9492 2.723,-4.4023 0.207,-0.3203 0.41,-0.6446 0.625,-0.9688 0.066,-0.0937 0.132,-0.1914 0.207,-0.3008 0.121,-0.1953 0.261,-0.4023 0.398,-0.5937 0.246,-0.3711 0.504,-0.7422 0.758,-1.1133 0.226,-0.3242 0.445,-0.6445 0.664,-0.9687 0.215,-0.293 0.426,-0.5938 0.637,-0.8868 0.261,-0.3711 0.531,-0.7421 0.8,-1.1132 0.258,-0.3555 0.52,-0.7032 0.782,-1.0469 0.082,-0.125 0.175,-0.2344 0.257,-0.3516" /><path
         id="path36"
         style="fill:#ffffff;fill-opacity:1;fill-rule:nonzero;stroke:none"
         d="m 328.34,154.5 c -0.524,-0.934 -1.031,-1.871 -1.531,-2.816 -0.27,-0.508 -0.532,-1.024 -0.793,-1.536 -0.262,-0.511 -0.516,-1.027 -0.77,-1.543 -0.258,-0.507 -0.504,-1.027 -0.75,-1.542 -0.246,-0.516 -0.488,-1.04 -0.723,-1.559 -0.242,-0.52 -0.472,-1.043 -0.707,-1.566 -0.238,-0.516 -0.461,-1.043 -0.679,-1.575 -0.442,-1.023 -0.864,-2.047 -1.274,-3.093 -0.015,-0.047 -0.035,-0.098 -0.058,-0.149 -0.196,-0.508 -0.399,-1.012 -0.586,-1.519 -0.203,-0.539 -0.399,-1.067 -0.594,-1.614 -0.187,-0.515 -0.375,-1.035 -0.555,-1.57 -0.011,-0.031 -0.015,-0.051 -0.019,-0.07 -0.188,-0.528 -0.367,-1.055 -0.543,-1.582 -0.156,-0.469 -0.305,-0.926 -0.453,-1.399 -0.039,-0.125 -0.082,-0.254 -0.117,-0.387 -0.122,-0.382 -0.239,-0.761 -0.36,-1.132 -0.211,-0.703 -0.418,-1.407 -0.617,-2.114 -0.277,-0.972 -0.547,-1.953 -0.797,-2.937 -0.043,-0.156 -0.082,-0.313 -0.117,-0.457 -0.121,-0.481 -0.238,-0.957 -0.356,-1.43 -0.128,-0.535 -0.253,-1.062 -0.371,-1.59 -0.015,-0.066 -0.031,-0.129 -0.043,-0.195 -0.105,-0.449 -0.203,-0.898 -0.3,-1.355 -0.09,-0.422 -0.176,-0.84 -0.262,-1.262 -0.07,-0.32 -0.133,-0.637 -0.188,-0.957 -0.047,-0.203 -0.086,-0.418 -0.121,-0.625 -0.066,-0.352 -0.136,-0.703 -0.199,-1.055 -0.207,-1.141 -0.394,-2.285 -0.57,-3.437 -0.071,-0.45 -0.141,-0.887 -0.196,-1.336 -0.086,-0.571 -0.168,-1.125 -0.238,-1.7 0,-0.011 -0.004,-0.031 -0.004,-0.039 -0.043,-0.363 -0.09,-0.746 -0.136,-1.117 -1.844,1.633 -3.641,3.332 -5.375,5.063 -11.836,11.836 -20.868,25.664 -26.852,41.121 5.988,15.332 14.977,29.058 26.73,40.808 1.821,1.821 3.715,3.602 5.664,5.309 0.008,-0.117 0.024,-0.238 0.04,-0.359 0.043,-0.36 0.085,-0.7 0.132,-1.047 0.02,-0.117 0.028,-0.235 0.047,-0.344 0.043,-0.363 0.094,-0.719 0.141,-1.074 0.055,-0.367 0.109,-0.735 0.164,-1.106 0.019,-0.152 0.043,-0.3 0.066,-0.461 0.082,-0.535 0.172,-1.078 0.266,-1.609 0.082,-0.523 0.168,-1.039 0.266,-1.559 0.027,-0.168 0.058,-0.332 0.093,-0.5 0.082,-0.441 0.168,-0.886 0.25,-1.332 0.098,-0.492 0.196,-0.988 0.301,-1.488 0.027,-0.121 0.047,-0.242 0.078,-0.363 0.098,-0.504 0.211,-1.004 0.324,-1.5 0.118,-0.516 0.231,-1.012 0.352,-1.524 0.016,-0.089 0.039,-0.168 0.059,-0.246 0.121,-0.519 0.254,-1.043 0.386,-1.566 0.118,-0.457 0.235,-0.918 0.356,-1.375 0.297,-1.137 0.613,-2.27 0.953,-3.399 0.082,-0.3 0.176,-0.597 0.266,-0.894 0.136,-0.453 0.281,-0.902 0.418,-1.356 0.105,-0.332 0.214,-0.656 0.32,-0.984 0.055,-0.16 0.109,-0.32 0.16,-0.477 0.129,-0.39 0.254,-0.777 0.391,-1.164 0.035,-0.117 0.078,-0.238 0.125,-0.347 0.109,-0.356 0.238,-0.707 0.363,-1.059 0.074,-0.215 0.144,-0.426 0.23,-0.637 0.157,-0.441 0.325,-0.886 0.485,-1.328 0,-0.004 0.004,-0.015 0.004,-0.023 0.394,-1.059 0.804,-2.117 1.234,-3.168 0.008,-0.004 0.008,-0.012 0.012,-0.02 0.215,-0.527 0.437,-1.054 0.66,-1.586 0.223,-0.523 0.445,-1.05 0.672,-1.574 0.226,-0.504 0.449,-1.004 0.676,-1.508 0.023,-0.054 0.046,-0.101 0.07,-0.156 0.211,-0.461 0.422,-0.918 0.644,-1.371 0.02,-0.059 0.047,-0.121 0.079,-0.18 0.218,-0.476 0.457,-0.945 0.679,-1.418 0.012,-0.023 0.016,-0.043 0.035,-0.058 0.215,-0.453 0.438,-0.906 0.668,-1.36 0.766,-1.519 1.563,-3.027 2.387,-4.519 0,-0.004 0.008,-0.004 0.008,-0.004" /><path
         id="path38"
         style="fill:#ffffff;fill-opacity:1;fill-rule:nonzero;stroke:none"
         d="m 557.668,93.1172 c 0,-16.7383 -3.391,-32.9102 -10.094,-48.0664 -15.082,-6.6094 -31.14,-9.9492 -47.75,-9.9492 -1.304,0 -2.609,0.0156 -3.918,0.0547 0.032,0.039 0.063,0.0898 0.086,0.1171 0.344,0.461 0.696,0.9297 1.031,1.3868 0.329,0.4414 0.653,0.8906 0.965,1.3281 0.039,0.0508 0.078,0.1094 0.106,0.1601 0.277,0.3868 0.551,0.7696 0.82,1.1602 0.082,0.1094 0.16,0.2227 0.238,0.3398 0.282,0.4024 0.551,0.8008 0.821,1.2032 0.011,0.0078 0.019,0.0312 0.031,0.039 0.269,0.4102 0.547,0.8086 0.809,1.2188 0.21,0.3164 0.41,0.625 0.613,0.9492 0.176,0.2539 0.336,0.5156 0.5,0.7812 0.371,0.5977 0.75,1.1915 1.113,1.7891 0.191,0.3125 0.375,0.625 0.566,0.9375 0.364,0.6133 0.723,1.2188 1.075,1.832 0.215,0.375 0.425,0.7539 0.636,1.125 0.036,0.0586 0.067,0.1172 0.102,0.1875 0.266,0.4688 0.527,0.9454 0.781,1.4258 0.27,0.4844 0.543,0.9961 0.805,1.5039 0.262,0.5078 0.523,1.0039 0.781,1.5196 0.02,0.039 0.043,0.0781 0.067,0.1171 0.234,0.4688 0.461,0.9415 0.695,1.4102 0.246,0.5039 0.492,1.0234 0.738,1.543 0.199,0.4101 0.395,0.8359 0.586,1.2578 0.098,0.2031 0.195,0.418 0.289,0.6328 0.18,0.4023 0.367,0.8125 0.547,1.2227 0.18,0.4296 0.371,0.8476 0.551,1.289 0.082,0.1953 0.16,0.3828 0.246,0.5781 0.195,0.4454 0.383,0.9063 0.559,1.3633 0.156,0.3633 0.304,0.7422 0.449,1.1172 0.074,0.1719 0.148,0.3711 0.222,0.5664 0.184,0.4766 0.371,0.957 0.551,1.4336 0.348,0.9258 0.684,1.8672 1.012,2.8125 0.152,0.4297 0.297,0.8594 0.441,1.2891 0.035,0.0898 0.067,0.1758 0.086,0.2656 0.11,0.3203 0.219,0.6406 0.321,0.9648 0.121,0.3711 0.238,0.7344 0.351,1.1055 0.016,0.0391 0.024,0.0742 0.035,0.1133 0.121,0.3828 0.239,0.7656 0.36,1.1562 0.078,0.2735 0.164,0.5547 0.246,0.8282 0.293,0.9882 0.57,1.9843 0.84,2.9687 0.367,1.3477 0.703,2.6953 1.019,4.043 0.234,1.0156 0.465,2.0312 0.676,3.0586 0.129,0.6133 0.258,1.2383 0.379,1.8633 0.148,0.789 0.289,1.5742 0.426,2.3632 0.105,0.586 0.199,1.1719 0.293,1.7579 0.011,0.0976 0.035,0.1953 0.043,0.3046 0.148,0.8868 0.273,1.7735 0.39,2.6758 0.75,5.5547 1.129,11.1723 1.129,16.8043 0,0.442 0,0.887 -0.012,1.336 -0.004,0.317 -0.004,0.625 -0.011,0.942 0,0.261 -0.012,0.523 -0.016,0.789 -0.008,0.32 -0.016,0.644 -0.023,0.976 -0.016,0.371 -0.032,0.75 -0.047,1.133 -0.039,0.977 -0.086,1.946 -0.149,2.91 -0.019,0.313 -0.043,0.618 -0.066,0.918 h 0.008 c 0.281,0.246 0.562,0.496 0.859,0.75 0.297,0.266 0.605,0.539 0.906,0.813 0.41,0.359 0.817,0.722 1.215,1.101 0.274,0.254 0.555,0.508 0.82,0.754 0.332,0.313 0.664,0.625 0.993,0.938 0.078,0.078 0.156,0.156 0.234,0.222 0.586,0.571 1.172,1.133 1.75,1.711 0.305,0.313 0.617,0.625 0.918,0.926 0.363,0.371 0.727,0.742 1.082,1.125 0.289,0.305 0.586,0.606 0.867,0.918 0.563,0.606 1.125,1.211 1.676,1.817 0.109,0.117 0.215,0.234 0.312,0.351 0.266,0.293 0.524,0.586 0.782,0.879 0.308,0.344 0.605,0.684 0.906,1.047 0.297,0.34 0.598,0.683 0.887,1.043 0.265,0.312 0.539,0.637 0.804,0.957 0.629,0.762 1.25,1.531 1.868,2.324 0.257,0.332 0.515,0.664 0.777,0.996 0.277,0.363 0.551,0.723 0.828,1.094 0.004,0.012 0.016,0.012 0.016,0.019 0.265,0.364 0.535,0.723 0.804,1.075 0.27,0.371 0.539,0.754 0.805,1.113 0.27,0.371 0.531,0.742 0.785,1.113 0.09,0.117 0.172,0.235 0.258,0.364 0.441,0.625 0.883,1.273 1.312,1.921 0.254,0.375 0.508,0.762 0.762,1.149 0.145,0.223 0.293,0.453 0.446,0.683 0.003,0 0.003,0.004 0.003,0.004 0.039,-0.086 0.082,-0.175 0.125,-0.254 0.039,-0.078 0.086,-0.164 0.129,-0.25 0.02,-0.043 0.039,-0.082 0.063,-0.125 0.191,-0.375 0.371,-0.742 0.551,-1.121 0.089,-0.179 0.183,-0.363 0.269,-0.535 0.117,-0.25 0.235,-0.492 0.348,-0.73 0.121,-0.254 0.242,-0.52 0.359,-0.774 0.68,-1.433 1.324,-2.898 1.945,-4.367 0.176,-0.418 0.352,-0.84 0.524,-1.266 0.18,-0.441 0.359,-0.902 0.539,-1.347 0.055,-0.141 0.105,-0.274 0.156,-0.41 0.133,-0.356 0.266,-0.688 0.391,-1.028 0.058,-0.156 0.117,-0.312 0.183,-0.468 0.149,-0.418 0.305,-0.84 0.454,-1.258 0.003,-0.012 0.003,-0.024 0.007,-0.031 0.129,-0.34 0.25,-0.684 0.371,-1.036 0.094,-0.273 0.192,-0.547 0.286,-0.82 0.019,-0.078 0.047,-0.144 0.066,-0.215 0.137,-0.398 0.27,-0.801 0.398,-1.199 0.297,-0.898 0.579,-1.809 0.852,-2.727 0.137,-0.457 0.273,-0.918 0.402,-1.375 0.106,-0.375 0.204,-0.746 0.309,-1.105 0.047,-0.156 0.086,-0.313 0.125,-0.457 0.094,-0.332 0.187,-0.676 0.27,-1.02 0.023,-0.086 0.046,-0.171 0.066,-0.269 0.094,-0.356 0.187,-0.695 0.269,-1.059 0.055,-0.203 0.11,-0.418 0.153,-0.625 0.078,-0.281 0.137,-0.562 0.211,-0.84 0.101,-0.449 0.203,-0.894 0.301,-1.355 0.109,-0.469 0.207,-0.945 0.308,-1.426 0.074,-0.332 0.141,-0.676 0.207,-1.015 0.047,-0.196 0.078,-0.391 0.121,-0.594 0.156,-0.821 0.313,-1.633 0.449,-2.453 0.04,-0.196 0.071,-0.391 0.102,-0.594 0.027,-0.156 0.055,-0.313 0.078,-0.473 0.059,-0.34 0.113,-0.691 0.164,-1.043 0.039,-0.222 0.074,-0.461 0.11,-0.683 0.039,-0.254 0.074,-0.496 0.101,-0.75 0.039,-0.239 0.074,-0.481 0.11,-0.727 0.039,-0.332 0.085,-0.66 0.128,-0.984 0.02,-0.156 0.039,-0.321 0.059,-0.481 0.035,-0.281 0.074,-0.574 0.105,-0.855 0.04,-0.317 0.067,-0.637 0.106,-0.957 0.109,-0.957 0.199,-1.938 0.277,-2.903 0.028,-0.183 0.035,-0.378 0.051,-0.578 0.027,-0.386 0.063,-0.777 0.082,-1.16 0.016,-0.215 0.035,-0.437 0.051,-0.676 0.16,-2.566 0.246,-5.1637 0.246,-7.7418" /><path
         id="path40"
         style="fill:#ffffff;fill-opacity:1;fill-rule:nonzero;stroke:none"
         d="m 596.164,154.113 c -5.996,-15.332 -14.984,-29.05 -26.73,-40.8 -1.832,-1.836 -3.746,-3.633 -5.704,-5.352 -0.011,0.078 -0.015,0.168 -0.031,0.242 -0.043,0.395 -0.094,0.766 -0.14,1.145 -0.094,0.754 -0.196,1.496 -0.305,2.246 -0.043,0.312 -0.094,0.625 -0.141,0.937 -0.019,0.117 -0.035,0.235 -0.054,0.352 -0.157,0.984 -0.321,1.98 -0.5,2.961 -0.094,0.554 -0.204,1.094 -0.305,1.629 -0.012,0.058 -0.02,0.105 -0.035,0.168 -0.102,0.527 -0.203,1.05 -0.317,1.582 -0.121,0.554 -0.238,1.113 -0.359,1.668 -0.129,0.566 -0.258,1.113 -0.387,1.679 -0.133,0.547 -0.269,1.106 -0.414,1.66 -0.137,0.547 -0.285,1.106 -0.426,1.653 -0.003,0.027 -0.015,0.058 -0.023,0.097 -0.148,0.516 -0.289,1.036 -0.43,1.551 -0.281,0.989 -0.574,1.973 -0.875,2.942 -0.09,0.293 -0.175,0.574 -0.269,0.867 -0.094,0.293 -0.188,0.578 -0.281,0.871 -0.047,0.152 -0.094,0.301 -0.153,0.457 -0.129,0.398 -0.258,0.793 -0.394,1.191 -0.047,0.118 -0.086,0.235 -0.125,0.352 -0.157,0.449 -0.317,0.906 -0.473,1.355 -0.016,0.051 -0.035,0.09 -0.055,0.137 -0.16,0.461 -0.332,0.91 -0.5,1.367 -0.031,0.09 -0.066,0.188 -0.097,0.285 -0.387,1.016 -0.778,2.024 -1.184,3.028 -0.027,0.058 -0.055,0.117 -0.074,0.168 -0.199,0.508 -0.403,0.996 -0.617,1.492 -0.192,0.449 -0.379,0.891 -0.575,1.34 -0.117,0.269 -0.238,0.555 -0.367,0.828 -0.086,0.211 -0.183,0.422 -0.277,0.625 -0.102,0.219 -0.199,0.445 -0.301,0.664 -0.18,0.387 -0.351,0.766 -0.531,1.145 -0.027,0.062 -0.055,0.121 -0.086,0.171 -0.234,0.5 -0.469,0.989 -0.707,1.481 -0.192,0.387 -0.379,0.762 -0.57,1.148 -0.102,0.203 -0.207,0.418 -0.321,0.625 -0.695,1.387 -1.422,2.758 -2.183,4.121 0,0.004 0,0.004 0,0.004 0.5,0.895 0.988,1.797 1.472,2.703 0.02,0.032 0.039,0.079 0.055,0.118 0.273,0.5 0.527,1.019 0.789,1.531 0.27,0.512 0.52,1.023 0.774,1.539 0.238,0.473 0.464,0.945 0.691,1.426 0.039,0.074 0.074,0.156 0.109,0.234 0.231,0.477 0.453,0.957 0.68,1.445 0.234,0.524 0.473,1.043 0.707,1.567 0.219,0.5 0.434,1.008 0.656,1.515 0.012,0.024 0.016,0.043 0.028,0.071 0.379,0.886 0.746,1.777 1.101,2.676 0.051,0.125 0.098,0.246 0.149,0.371 0.105,0.265 0.203,0.523 0.308,0.789 0.121,0.304 0.235,0.613 0.352,0.918 0.199,0.535 0.394,1.066 0.59,1.605 0.171,0.465 0.336,0.934 0.496,1.402 0.05,0.129 0.093,0.258 0.136,0.387 0.164,0.465 0.325,0.946 0.481,1.414 0.004,0.016 0.008,0.024 0.008,0.043 0.156,0.453 0.304,0.91 0.445,1.364 0.043,0.125 0.078,0.253 0.121,0.378 0.137,0.442 0.274,0.875 0.402,1.317 0.024,0.07 0.051,0.148 0.075,0.222 0.16,0.54 0.308,1.067 0.461,1.598 0.011,0.024 0.027,0.055 0.031,0.078 0.301,1.071 0.59,2.149 0.867,3.223 0.145,0.547 0.281,1.101 0.41,1.652 0.133,0.559 0.266,1.106 0.387,1.66 0.004,0.012 0.012,0.024 0.012,0.036 0.121,0.55 0.242,1.105 0.363,1.652 0.094,0.449 0.187,0.902 0.273,1.351 0.051,0.208 0.09,0.411 0.129,0.618 0.094,0.492 0.192,0.98 0.278,1.476 0.097,0.539 0.195,1.074 0.285,1.617 0.09,0.532 0.179,1.067 0.261,1.602 0,0.027 0.016,0.066 0.016,0.102 0.086,0.562 0.172,1.132 0.246,1.699 0.09,0.574 0.164,1.144 0.238,1.715 0.047,0.347 0.086,0.699 0.129,1.054 1.871,-1.656 3.692,-3.371 5.45,-5.121 11.843,-11.836 20.867,-25.672 26.855,-41.129" /><path
         id="path42"
         style="fill:#ffffff;fill-opacity:1;fill-rule:nonzero;stroke:none"
         d="m 482.336,279.152 c -1.164,-0.164 -2.34,-0.336 -3.5,-0.535 -0.043,-0.008 -0.082,-0.012 -0.121,-0.015 -0.52,-0.094 -1.027,-0.18 -1.543,-0.274 -0.059,-0.012 -0.117,-0.019 -0.172,-0.031 -0.535,-0.102 -1.07,-0.199 -1.598,-0.301 -0.566,-0.109 -1.121,-0.219 -1.683,-0.344 -0.563,-0.117 -1.117,-0.234 -1.668,-0.359 -0.035,-0.004 -0.074,-0.016 -0.106,-0.023 -0.527,-0.118 -1.047,-0.235 -1.57,-0.36 -0.539,-0.129 -1.074,-0.262 -1.621,-0.398 -0.043,-0.012 -0.094,-0.032 -0.141,-0.039 -0.523,-0.133 -1.039,-0.27 -1.554,-0.407 -0.551,-0.144 -1.098,-0.3 -1.653,-0.453 -0.543,-0.152 -1.09,-0.312 -1.636,-0.472 -0.547,-0.168 -1.09,-0.328 -1.637,-0.504 -0.528,-0.157 -1.055,-0.332 -1.578,-0.504 -0.684,-0.219 -1.371,-0.449 -2.055,-0.692 -0.41,-0.144 -0.82,-0.285 -1.227,-0.437 -0.535,-0.188 -1.07,-0.383 -1.605,-0.586 -0.52,-0.195 -1.039,-0.395 -1.563,-0.594 -0.031,-0.011 -0.058,-0.019 -0.082,-0.035 -0.5,-0.195 -0.996,-0.387 -1.488,-0.59 -0.027,-0.011 -0.062,-0.023 -0.086,-0.039 -0.515,-0.207 -1.035,-0.422 -1.551,-0.64 -0.531,-0.219 -1.054,-0.446 -1.578,-0.68 -1.047,-0.457 -2.09,-0.93 -3.125,-1.418 -0.511,-0.234 -1.019,-0.484 -1.531,-0.734 -0.035,-0.02 -0.07,-0.036 -0.109,-0.059 -0.383,-0.184 -0.754,-0.367 -1.133,-0.555 -0.215,-0.113 -0.43,-0.222 -0.645,-0.328 -0.367,-0.187 -0.738,-0.383 -1.109,-0.57 -0.055,-0.028 -0.102,-0.055 -0.156,-0.086 -0.434,-0.227 -0.867,-0.453 -1.305,-0.692 -1.066,-0.578 -2.137,-1.168 -3.195,-1.777 -12.789,-7.359 -24.098,-16.82 -33.621,-28.121 -7.453,-8.832 -13.653,-18.633 -18.411,-29.109 -3.906,-8.575 -6.832,-17.614 -8.718,-26.852 -0.004,-0.016 -0.004,-0.031 -0.004,-0.047 -1.68,-8.254 -2.528,-16.746 -2.528,-25.23 0,-2.352 0.063,-4.703 0.196,-7.051 v -0.012 c -0.078,0.16 -0.153,0.324 -0.223,0.485 -0.453,0.98 -0.898,1.964 -1.316,2.957 -0.098,0.211 -0.188,0.425 -0.27,0.636 -0.332,0.789 -0.652,1.578 -0.965,2.371 -0.113,0.258 -0.211,0.524 -0.312,0.782 -0.156,0.41 -0.32,0.828 -0.473,1.238 -1.906,5.098 -3.469,10.316 -4.66,15.625 -1.191,5.305 -2.031,10.691 -2.492,16.133 -1.18,13.918 0.058,27.804 3.687,41.273 4.547,16.899 12.594,32.266 23.911,45.66 2.167,2.571 4.484,5.09 6.875,7.485 11.835,11.832 25.664,20.863 41.125,26.855 15.328,-5.996 29.054,-14.984 40.808,-26.738 0.918,-0.914 1.828,-1.852 2.715,-2.809" /><path
         id="path44"
         style="fill:#ffffff;fill-opacity:1;fill-rule:nonzero;stroke:none"
         d="m 489.398,195.141 c -0.05,0.132 -0.101,0.277 -0.156,0.41 -0.043,0.137 -0.094,0.265 -0.14,0.402 -0.164,0.422 -0.325,0.848 -0.485,1.27 -0.187,0.472 -0.371,0.949 -0.558,1.425 -0.028,0.075 -0.063,0.149 -0.09,0.219 -0.184,0.457 -0.367,0.91 -0.559,1.36 -0.027,0.082 -0.066,0.168 -0.101,0.253 -0.188,0.446 -0.383,0.899 -0.579,1.344 -0.003,0.024 -0.011,0.047 -0.023,0.067 -0.223,0.504 -0.437,1.004 -0.668,1.496 -4.469,9.918 -10.297,19.195 -17.32,27.558 -1.188,1.426 -2.406,2.813 -3.668,4.18 -0.203,0.223 -0.414,0.453 -0.625,0.672 -0.828,0.891 -1.668,1.766 -2.524,2.625 -0.172,0.18 -0.351,0.355 -0.535,0.531 -0.23,0.235 -0.469,0.469 -0.711,0.703 -0.226,0.223 -0.461,0.449 -0.691,0.668 -0.824,0.797 -1.66,1.578 -2.5,2.344 -0.274,0.254 -0.547,0.492 -0.82,0.734 -0.219,0.203 -0.45,0.403 -0.676,0.598 -0.317,0.285 -0.633,0.563 -0.957,0.836 -0.391,0.332 -0.782,0.664 -1.172,0.992 -0.313,0.27 -0.633,0.527 -0.949,0.789 -0.364,0.301 -0.727,0.586 -1.086,0.887 -0.922,0.73 -1.856,1.457 -2.797,2.168 -0.992,0.742 -1.992,1.473 -3.004,2.187 -0.336,0.239 -0.676,0.473 -1.016,0.707 -0.679,0.469 -1.363,0.934 -2.05,1.387 -0.512,0.336 -1.016,0.668 -1.532,0.992 -0.289,0.184 -0.578,0.371 -0.867,0.547 -0.25,0.16 -0.496,0.305 -0.746,0.457 -0.293,0.188 -0.59,0.371 -0.887,0.547 -0.058,0.035 -0.113,0.074 -0.168,0.098 0,0.004 -0.004,0.004 -0.004,0.004 -0.175,-0.102 -0.343,-0.203 -0.519,-0.313 -0.371,-0.222 -0.735,-0.449 -1.106,-0.676 -0.379,-0.23 -0.738,-0.464 -1.109,-0.695 -0.727,-0.465 -1.461,-0.941 -2.184,-1.422 -0.718,-0.476 -1.433,-0.969 -2.148,-1.465 -0.352,-0.242 -0.707,-0.492 -1.059,-0.746 -0.351,-0.254 -0.707,-0.504 -1.054,-0.761 -2.696,-1.969 -5.313,-4.059 -7.832,-6.25 -0.313,-0.274 -0.625,-0.543 -0.934,-0.817 -0.309,-0.273 -0.609,-0.539 -0.918,-0.824 -0.492,-0.445 -0.984,-0.895 -1.465,-1.348 -0.215,-0.199 -0.433,-0.398 -0.644,-0.609 -0.227,-0.211 -0.449,-0.426 -0.668,-0.641 -0.25,-0.238 -0.5,-0.484 -0.742,-0.722 -0.25,-0.243 -0.5,-0.493 -0.754,-0.743 -0.254,-0.257 -0.512,-0.511 -0.762,-0.781 -0.223,-0.219 -0.441,-0.445 -0.664,-0.672 -0.164,-0.172 -0.336,-0.347 -0.508,-0.527 -0.285,-0.301 -0.57,-0.602 -0.848,-0.906 -1.418,-1.508 -2.793,-3.055 -4.132,-4.641 -7.043,-8.355 -12.899,-17.613 -17.407,-27.516 -0.261,-0.589 -0.527,-1.183 -0.785,-1.777 -0.179,-0.43 -0.367,-0.851 -0.547,-1.285 -0.015,-0.027 -0.023,-0.063 -0.043,-0.094 -0.191,-0.457 -0.379,-0.918 -0.562,-1.375 -0.25,-0.605 -0.492,-1.219 -0.723,-1.82 -0.176,-0.457 -0.351,-0.91 -0.512,-1.367 -0.054,-0.129 -0.105,-0.262 -0.148,-0.395 -0.051,-0.129 -0.098,-0.262 -0.152,-0.394 0.008,0.007 0.008,0.007 0.015,0.007 1.563,1.754 3.184,3.465 4.844,5.129 1.121,1.125 2.27,2.211 3.434,3.293 8.336,7.106 22.597,15.977 42.054,16.11 0.004,0 0.008,0 0.016,0 0.219,0.008 0.43,0 0.645,0 0.292,0 0.574,-0.008 0.867,-0.008 19.449,-0.332 33.687,-9.426 41.89,-16.547 0.957,-0.898 1.899,-1.797 2.828,-2.73 1.747,-1.743 3.446,-3.547 5.086,-5.391 0.008,-0.004 0.008,-0.004 0.008,-0.008 -0.031,0.094 -0.066,0.184 -0.094,0.27" /><path
         id="path46"
         style="fill:#ffffff;fill-opacity:1;fill-rule:nonzero;stroke:none"
         d="m 387.789,113.559 c 0.047,-0.137 0.102,-0.286 0.152,-0.411 0.051,-0.136 0.094,-0.277 0.145,-0.402 0.164,-0.43 0.32,-0.848 0.488,-1.277 0.18,-0.473 0.364,-0.949 0.551,-1.418 0.027,-0.078 0.063,-0.149 0.094,-0.227 0.179,-0.457 0.363,-0.906 0.554,-1.355 0.032,-0.086 0.071,-0.164 0.102,-0.254 0.188,-0.449 0.383,-0.899 0.578,-1.348 0.004,-0.019 0.016,-0.039 0.027,-0.066 0.219,-0.5 0.434,-0.996 0.665,-1.485 4.468,-9.9215 10.3,-19.2027 17.32,-27.5699 1.187,-1.418 2.414,-2.8125 3.668,-4.1719 0.203,-0.2304 0.414,-0.457 0.625,-0.6797 0.828,-0.8789 1.668,-1.7578 2.523,-2.6211 0.172,-0.1718 0.352,-0.3476 0.539,-0.5351 0.235,-0.2227 0.465,-0.4688 0.707,-0.7031 0.231,-0.2227 0.465,-0.4375 0.692,-0.6641 0.828,-0.8008 1.66,-1.582 2.508,-2.3438 0.265,-0.2539 0.539,-0.5 0.812,-0.7304 0.223,-0.2071 0.449,-0.4102 0.676,-0.6055 0.316,-0.2734 0.633,-0.5586 0.957,-0.832 0.391,-0.3321 0.781,-0.6641 1.172,-0.9961 0.316,-0.2617 0.633,-0.5274 0.953,-0.793 0.359,-0.293 0.723,-0.5859 1.082,-0.8789 0.922,-0.7305 1.855,-1.4531 2.805,-2.168 0.988,-0.7421 1.984,-1.4726 2.996,-2.1836 0.336,-0.2343 0.679,-0.4804 1.015,-0.7031 0.68,-0.4804 1.368,-0.9414 2.051,-1.3984 0.512,-0.332 1.02,-0.6641 1.535,-0.9844 0.285,-0.1875 0.574,-0.3711 0.867,-0.5508 0.247,-0.164 0.493,-0.3086 0.743,-0.457 0.297,-0.1836 0.589,-0.3711 0.894,-0.5469 0.055,-0.039 0.106,-0.0781 0.16,-0.0976 0,-0.0078 0.004,-0.0078 0.004,-0.0078 0.176,0.1054 0.344,0.2031 0.52,0.3203 0.371,0.2148 0.734,0.4492 1.105,0.6757 0.379,0.2305 0.739,0.4571 1.11,0.6915 0.726,0.4687 1.461,0.9375 2.183,1.414 0.719,0.4922 1.438,0.9805 2.149,1.4766 0.351,0.2344 0.707,0.4883 1.058,0.7422 0.352,0.2539 0.707,0.5078 1.055,0.7617 2.695,1.9726 5.312,4.0625 7.84,6.25 0.304,0.2734 0.617,0.539 0.926,0.8086 0.312,0.2851 0.609,0.5469 0.918,0.832 0.492,0.4492 0.988,0.8984 1.464,1.3477 0.215,0.2031 0.434,0.4023 0.645,0.6054 0.226,0.2149 0.449,0.4297 0.668,0.6446 0.25,0.2343 0.5,0.4804 0.75,0.7226 0.242,0.2461 0.492,0.4883 0.746,0.7422 0.254,0.2539 0.512,0.5195 0.766,0.7813 0.218,0.2148 0.437,0.4492 0.66,0.6757 0.164,0.1758 0.336,0.3516 0.508,0.5235 0.289,0.3047 0.57,0.5976 0.847,0.9023 1.418,1.5117 2.793,3.0625 4.133,4.6446 7.047,8.3515 12.898,17.6093 17.406,27.5117 0.266,0.598 0.528,1.184 0.785,1.785 0.188,0.422 0.368,0.852 0.547,1.281 0.016,0.032 0.032,0.059 0.043,0.098 0.192,0.461 0.383,0.918 0.563,1.379 0.25,0.605 0.496,1.211 0.722,1.812 0.176,0.454 0.352,0.911 0.512,1.372 0.055,0.125 0.106,0.253 0.152,0.386 0.047,0.129 0.094,0.266 0.149,0.395 -0.008,0 -0.008,0 -0.012,0 -1.566,-1.758 -3.187,-3.469 -4.847,-5.129 -1.118,-1.121 -2.27,-2.219 -3.434,-3.289 -8.332,-7.1096 -22.598,-15.9885 -42.055,-16.1135 -0.004,0 -0.008,0 -0.015,0 -0.219,-0.0117 -0.43,0 -0.645,0 -0.285,0 -0.574,0 -0.867,0 -19.449,0.3321 -33.688,9.4297 -41.891,16.5505 -0.957,0.899 -1.898,1.797 -2.828,2.727 -1.746,1.746 -3.445,3.555 -5.086,5.391 -0.004,0.007 -0.004,0.007 -0.004,0.007 0.032,-0.086 0.063,-0.175 0.094,-0.261" /></g></g></svg>